<svg xmlns="http://www.w3.org/2000/svg" xmlns:xlink="http://www.w3.org/1999/xlink" width="18" height="18" viewBox="0 0 18 18">
    <defs>
        <path id="a" d="M3.218 6.924a13.465 13.465 0 0 0 5.858 5.858l1.955-1.955c.24-.24.596-.32.907-.214a10.14 10.14 0 0 0 3.173.507c.489 0 .889.4.889.889v3.102c0 .489-.4.889-.889.889C6.764 16 0 9.236 0 .889 0 .4.4 0 .889 0H4c.489 0 .889.4.889.889 0 1.111.178 2.178.507 3.173a.892.892 0 0 1-.223.907L3.218 6.924z"/>
    </defs>
    <g fill="none" fill-rule="evenodd" transform="translate(1 1)">
        <mask id="b" fill="#fff">
            <use xlink:href="#a"/>
        </mask>
        <use fill="#6C7A89" xlink:href="#a"/>
        <g fill="#BDC3C7" mask="url(#b)">
            <path d="M-1-1h18v18H-1z"/>
        </g>
    </g>
</svg>
