<svg width="45" height="45" viewBox="0 0 45 45" fill="none" xmlns="http://www.w3.org/2000/svg">
<rect x="0.5" y="0.5" width="44" height="44" rx="22" fill="white"/>
<rect x="0.5" y="0.5" width="44" height="44" rx="22" stroke="#C3C6CF"/>
<g clip-path="url(#clip0_93_134)">
<path fill-rule="evenodd" clip-rule="evenodd" d="M28.5 13.5C30.0977 13.5 31.4037 14.7489 31.4949 16.3237L31.5 16.5V30.5C31.5 30.8623 31.3041 31.1962 30.9878 31.373C30.711 31.5276 30.3801 31.5407 30.095 31.4144L29.9759 31.3517L27.25 29.6742L24.5241 31.3517C24.2384 31.5274 23.8864 31.547 23.5859 31.4103L23.4759 31.3517L20.75 29.6742L18.0241 31.3517C17.7156 31.5415 17.3284 31.5497 17.0122 31.373C16.7311 31.2158 16.545 30.9346 16.5072 30.6195L16.5 30.5V24.5H14.5C13.9872 24.5 13.5645 24.114 13.5067 23.6166L13.5 23.5V16C13.5 14.6745 14.5315 13.59 15.8356 13.5053L16 13.5H28.5ZM25.5 22.5H21.5C20.9477 22.5 20.5 22.9477 20.5 23.5C20.5 24.0523 20.9477 24.5 21.5 24.5H25.5C26.0523 24.5 26.5 24.0523 26.5 23.5C26.5 22.9477 26.0523 22.5 25.5 22.5ZM16 15.5C15.7239 15.5 15.5 15.7239 15.5 16V22.5H16.5V16C16.5 15.7239 16.2761 15.5 16 15.5ZM26.5 18.5H21.5C20.9477 18.5 20.5 18.9477 20.5 19.5C20.5 20.0128 20.886 20.4355 21.3834 20.4933L21.5 20.5H26.5C27.0523 20.5 27.5 20.0523 27.5 19.5C27.5 18.9872 27.114 18.5645 26.6166 18.5067L26.5 18.5Z" fill="#F8891C"/>
</g>
<defs>
<clipPath id="clip0_93_134">
<rect width="24" height="24" fill="white" transform="translate(10.5 10.5)"/>
</clipPath>
</defs>
</svg>
