<svg width="45" height="45" viewBox="0 0 45 45" fill="none" xmlns="http://www.w3.org/2000/svg">
<rect x="0.5" y="0.5" width="44" height="44" rx="22" fill="white"/>
<rect x="0.5" y="0.5" width="44" height="44" rx="22" stroke="#C3C6CF"/>
<path d="M29.5541 10.5H15.4459C14.3726 10.5 13.5 11.2688 13.5 12.2143V32.7857C13.5 33.7313 14.3726 34.5 15.4459 34.5H29.5541C30.6274 34.5 31.5 33.7313 31.5 32.7857V12.2143C31.5 11.2688 30.6274 10.5 29.5541 10.5ZM29.3108 32.5714H15.6892V12.4286H29.3108V32.5714ZM21.2838 29.8393C21.2838 30.1234 21.4119 30.396 21.64 30.5969C21.8681 30.7978 22.1774 30.9107 22.5 30.9107C22.8226 30.9107 23.1319 30.7978 23.36 30.5969C23.5881 30.396 23.7162 30.1234 23.7162 29.8393C23.7162 29.5551 23.5881 29.2826 23.36 29.0817C23.1319 28.8807 22.8226 28.7679 22.5 28.7679C22.1774 28.7679 21.8681 28.8807 21.64 29.0817C21.4119 29.2826 21.2838 29.5551 21.2838 29.8393Z" fill="#F8891C"/>
<path d="M27.6283 21.5736C27.8368 21.39 27.8155 21.0822 27.5675 20.9402C26.0835 20.0913 24.3513 19.6405 22.5818 19.6428C20.7434 19.6428 19.0303 20.1189 17.5962 20.9402C17.5388 20.9743 17.4909 21.0193 17.4558 21.0719C17.4208 21.1245 17.3996 21.1834 17.3937 21.2441C17.3879 21.3049 17.3976 21.366 17.4221 21.423C17.4466 21.4801 17.4853 21.5315 17.5354 21.5736C17.6176 21.6443 17.7247 21.6883 17.839 21.6984C17.9534 21.7084 18.0682 21.6839 18.1646 21.6289C19.483 20.885 21.0163 20.4907 22.5818 20.493C24.1474 20.4907 25.6807 20.885 26.9991 21.6289C27.1969 21.7411 27.4623 21.7207 27.6283 21.5736ZM25.5215 23.4296C25.7396 23.2375 25.7001 22.9152 25.425 22.792C24.544 22.398 23.5698 22.1929 22.5818 22.1934C21.5589 22.1934 20.5918 22.4094 19.7387 22.792C19.4636 22.9152 19.4241 23.2375 19.6422 23.4296L19.6567 23.4424C19.8111 23.5784 20.0504 23.6039 20.2463 23.5189C20.9735 23.2057 21.7724 23.0431 22.5818 23.0436C23.4195 23.0436 24.2129 23.2145 24.9174 23.5197C25.1133 23.6048 25.3517 23.5792 25.507 23.4424L25.5215 23.4296ZM23.6048 25.1181C23.794 24.9515 23.7959 24.676 23.5662 24.557C23.2683 24.4012 22.9283 24.319 22.5818 24.3189C22.2354 24.319 21.8954 24.4012 21.5975 24.557C21.3678 24.676 21.3697 24.9515 21.5589 25.1181L22.2402 25.7183C22.285 25.7579 22.3383 25.7893 22.3969 25.8108C22.4555 25.8322 22.5184 25.8432 22.5818 25.8432C22.6453 25.8432 22.7082 25.8322 22.7668 25.8108C22.8254 25.7893 22.8787 25.7579 22.9235 25.7183L23.6058 25.1173L23.6048 25.1181Z" fill="#F8891C"/>
</svg>
